<?xml version="1.0" standalone="no"?>
<!DOCTYPE svg PUBLIC "-//W3C//DTD SVG 20010904//EN"
 "http://www.w3.org/TR/2001/REC-SVG-20010904/DTD/svg10.dtd">
<svg version="1.0" xmlns="http://www.w3.org/2000/svg"
 width="1856.000000pt" height="1081.000000pt" viewBox="0 0 1856.000000 1081.000000"
 preserveAspectRatio="xMidYMid meet">

<g transform="translate(0.000000,1081.000000) scale(0.100000,-0.100000)"
fill="#000000" stroke="none">
<path d="M90 5380 l0 -5370 2760 0 2760 0 0 155 0 155 -2605 0 -2605 0 0 5060
0 5060 8900 0 8900 0 0 -5060 0 -5060 -2605 0 -2605 0 0 -155 0 -155 2760 0
2760 0 0 5370 0 5370 -9210 0 -9210 0 0 -5370z"/>
<path d="M7499 4280 c-146 -37 -271 -70 -277 -74 -7 -4 -12 -34 -12 -77 0 -81
-10 -74 140 -104 l105 -21 0 -1319 0 -1319 -100 -18 c-162 -29 -146 -17 -143
-106 l3 -77 400 0 400 0 0 80 0 79 -100 18 c-55 10 -110 20 -122 23 l-23 5 -2
1488 -3 1488 -266 -66z"/>
<path d="M8458 4273 l-258 -65 0 -79 c0 -44 2 -79 4 -79 5 0 193 -38 224 -45
l22 -5 0 -1315 0 -1315 -22 -5 c-13 -3 -68 -13 -123 -23 l-100 -18 -3 -82 -3
-82 401 0 401 0 -3 82 -3 82 -115 21 -115 20 -3 1488 -2 1487 -23 -1 c-12 0
-138 -30 -279 -66z"/>
<path d="M1260 3971 l0 -80 58 -11 c31 -7 81 -17 111 -24 l53 -12 527 -1339
528 -1340 103 0 103 0 251 788 c137 433 253 784 257 780 5 -6 321 -906 536
-1530 l15 -43 98 0 c60 0 101 4 105 11 4 6 214 610 466 1342 253 732 464 1334
470 1338 6 4 46 12 88 19 132 20 121 11 121 101 l0 79 -370 0 -370 0 0 -79 c0
-91 -17 -80 158 -107 105 -17 113 -20 109 -39 -3 -11 -42 -126 -87 -255 -45
-129 -171 -523 -280 -875 -174 -561 -339 -1059 -347 -1051 -6 6 -744 2199
-741 2201 2 1 53 10 113 19 186 29 165 15 165 107 l0 79 -450 0 -450 0 0 -79
0 -79 50 -11 c28 -6 81 -16 119 -22 l69 -12 151 -395 151 -396 -218 -708
c-119 -389 -220 -708 -223 -708 -3 0 -64 156 -137 348 -72 191 -257 682 -412
1092 -155 410 -282 749 -283 754 -2 8 64 24 213 50 l36 6 -8 78 c-3 42 -7 78
-7 80 -1 1 -190 2 -421 2 l-420 0 0 -79z"/>
<path d="M9230 3972 l0 -80 63 -11 c34 -5 101 -16 150 -22 l87 -12 0 -1237 0
-1238 -117 -17 c-65 -9 -131 -20 -148 -24 l-30 -7 0 -80 0 -79 468 -3 467 -2
0 84 0 83 -137 22 c-75 12 -140 24 -145 27 -4 3 -8 250 -8 550 l0 544 202 -2
202 -3 409 -653 409 -652 326 2 327 3 3 74 c2 41 -1 78 -5 82 -5 5 -68 15
-140 23 -112 12 -143 20 -200 48 l-68 33 -358 544 c-197 299 -356 545 -355
546 2 1 54 19 116 40 160 54 260 113 357 210 162 162 224 337 212 595 -8 170
-47 289 -128 390 -37 45 -141 126 -204 158 -82 41 -224 84 -360 109 -139 26
-145 26 -767 30 l-628 4 0 -79z m1165 -163 c315 -32 484 -142 542 -354 22 -84
26 -211 9 -305 -31 -173 -125 -303 -269 -373 -151 -74 -293 -97 -594 -97
l-203 0 0 570 0 570 203 0 c112 0 253 -5 312 -11z"/>
<path d="M16403 3428 l-112 -113 -3 -130 -3 -129 -95 -23 c-52 -12 -105 -25
-118 -28 -22 -5 -23 -9 -20 -88 l3 -82 118 -3 117 -3 0 -547 c0 -664 7 -745
81 -900 37 -77 127 -170 198 -207 63 -31 159 -55 230 -55 64 0 209 46 301 97
99 54 231 153 223 166 -3 7 -25 35 -47 62 -22 28 -41 51 -41 53 -1 1 -32 -18
-69 -43 -92 -62 -185 -89 -284 -83 -132 8 -212 70 -254 198 -22 63 -22 79 -26
663 l-3 597 315 0 316 0 0 115 0 115 -315 0 -315 0 0 240 0 240 -43 0 c-41 0
-47 -4 -154 -112z"/>
<path d="M6077 3090 c-130 -22 -287 -94 -397 -183 -128 -104 -263 -306 -318
-477 -68 -209 -69 -511 -3 -703 76 -219 243 -409 445 -507 112 -54 254 -89
391 -97 131 -7 227 14 362 77 134 63 403 250 403 281 0 5 -21 33 -47 62 -26
29 -48 53 -49 55 -1 2 -38 -21 -81 -51 -146 -102 -258 -145 -398 -154 -328
-20 -616 187 -705 508 -18 66 -39 229 -29 229 2 0 282 20 622 45 671 48 634
43 696 108 23 25 23 28 12 119 -15 126 -35 198 -81 293 -95 195 -283 350 -475
390 -75 16 -267 18 -348 5z m213 -221 c164 -26 306 -170 338 -341 15 -79 21
-128 16 -128 -3 0 -224 -20 -491 -45 -267 -25 -488 -44 -490 -41 -12 12 33
164 73 245 37 74 62 110 118 165 133 133 258 174 436 145z"/>
<path d="M12617 3090 c-130 -22 -287 -94 -397 -183 -148 -120 -283 -337 -336
-542 -32 -123 -43 -337 -25 -465 55 -372 304 -651 667 -747 83 -21 122 -26
239 -26 128 -1 147 1 220 26 156 55 341 164 464 274 61 55 61 53 -7 127 l-43
47 -69 -51 c-277 -205 -609 -211 -867 -16 -153 115 -249 302 -269 520 l-7 74
69 6 c38 4 318 24 622 46 600 43 570 38 631 103 23 25 23 27 11 128 -26 229
-115 400 -277 534 -133 110 -271 156 -462 154 -64 -1 -137 -5 -164 -9z m212
-220 c149 -25 277 -137 325 -285 14 -44 37 -176 32 -182 -2 -2 -962 -93 -980
-93 -3 0 -2 17 1 38 21 152 109 315 220 410 121 104 242 137 402 112z"/>
<path d="M14058 3031 l-248 -66 0 -81 0 -80 113 -18 c63 -10 119 -21 126 -25
8 -5 10 -183 9 -701 l-3 -695 -120 -20 -120 -21 0 -79 0 -80 398 -3 398 -2 -3
82 -3 83 -95 17 c-52 10 -105 20 -117 23 l-23 5 0 640 0 639 43 30 c68 46 194
106 287 136 116 37 309 47 396 19 87 -27 156 -98 183 -190 21 -67 21 -86 19
-674 l-3 -605 -115 -20 -115 -21 -3 -82 -3 -82 398 2 398 3 0 80 0 79 -115 21
-115 20 -6 640 c-6 709 -4 689 -75 833 -61 125 -173 213 -315 247 -84 19 -255
19 -360 -1 -135 -25 -340 -109 -486 -200 l-43 -26 0 121 c0 109 -2 121 -17
120 -10 -1 -129 -31 -265 -68z"/>
</g>
</svg>
