<?xml version="1.0" encoding="UTF-8"?>
<!DOCTYPE svg PUBLIC "-//W3C//DTD SVG 1.1//EN" "http://www.w3.org/Graphics/SVG/1.1/DTD/svg11.dtd">
<svg xmlns="http://www.w3.org/2000/svg" version="1.1" width="1856px" height="1081px" style="shape-rendering:geometricPrecision; text-rendering:geometricPrecision; image-rendering:optimizeQuality; fill-rule:evenodd; clip-rule:evenodd" xmlns:xlink="http://www.w3.org/1999/xlink">
<g><path style="opacity:0.992" fill="#323232" d="M 1818.5,1047.5 C 1818.5,710.833 1818.5,374.167 1818.5,37.5C 1225.83,37.5 633.167,37.5 40.5,37.5C 40.5,374.167 40.5,710.833 40.5,1047.5C 214.167,1047.5 387.833,1047.5 561.5,1047.5C 561.5,1058.5 561.5,1069.5 561.5,1080.5C 561.167,1080.5 560.833,1080.5 560.5,1080.5C 376.667,1079.5 192.667,1079.17 8.5,1079.5C 8.5,721.5 8.5,363.5 8.5,5.5C 622.5,5.5 1236.5,5.5 1850.5,5.5C 1850.5,363.5 1850.5,721.5 1850.5,1079.5C 1666.5,1079.5 1482.5,1079.5 1298.5,1079.5C 1298.5,1069.17 1298.5,1058.83 1298.5,1048.5C 1472.57,1048.83 1645.9,1048.5 1818.5,1047."/></g>
<g><path style="opacity:0.992" fill="#f8e71b" d="M 1018.5,110.5 C 1041.83,110.5 1065.17,110.5 1088.5,110.5C 1088.5,134.833 1088.5,159.167 1088.5,183.5C 1117.5,183.333 1146.5,183.5 1175.5,184C 1179.77,184.534 1183.77,185.867 1187.5,188C 1237.01,243.177 1286.18,298.677 1335,354.5C 1344.29,370.318 1341.79,383.818 1327.5,395C 1324.75,396.75 1321.75,397.75 1318.5,398C 1212.5,398.667 1106.5,398.667 1000.5,398C 995.854,397.674 991.521,396.34 987.5,394C 917.667,322.167 847.833,250.333 778,178.5C 706.113,250.387 634.279,322.221 562.5,394C 547.817,401.699 535.317,399.199 525,386.5C 518.213,373.917 519.546,362.251 529,351.5C 605.221,275.279 681.387,199.113 757.5,123C 769.692,111.614 782.692,110.614 796.5,120C 816.833,141 837.167,162 857.5,183C 911.166,183.5 964.832,183.667 1018.5,183.5C 1018.5,159.167 1018.5,134.833 1018.5,110.5 Z"/></g>
<g><path style="opacity:0.973" fill="#f7e71b" d="M 705.5,304.5 C 724.833,304.5 744.167,304.5 763.5,304.5C 763.5,323.833 763.5,343.167 763.5,362.5C 744.167,362.5 724.833,362.5 705.5,362.5C 705.5,343.167 705.5,323.833 705.5,304.5 Z"/></g>
<g><path style="opacity:0.985" fill="#f7e71b" d="M 791.5,304.5 C 810.833,304.5 830.167,304.5 849.5,304.5C 849.5,323.833 849.5,343.167 849.5,362.5C 830.167,362.5 810.833,362.5 791.5,362.5C 791.5,343.167 791.5,323.833 791.5,304.5 Z"/></g>
<g><path style="opacity:0.969" fill="#f7e71b" d="M 705.5,386.5 C 724.833,386.5 744.167,386.5 763.5,386.5C 763.5,405.833 763.5,425.167 763.5,444.5C 744.167,444.5 724.833,444.5 705.5,444.5C 705.5,425.167 705.5,405.833 705.5,386.5 Z"/></g>
<g><path style="opacity:0.998" fill="#f7e71b" d="M 791.5,387.5 C 810.833,387.5 830.167,387.5 849.5,387.5C 849.5,406.5 849.5,425.5 849.5,444.5C 830.167,444.5 810.833,444.5 791.5,444.5C 791.5,425.5 791.5,406.5 791.5,387.5 Z"/></g>
<g><path style="opacity:0.986" fill="#f8e71b" d="M 600.5,444.5 C 626.873,442.604 647.373,452.604 662,474.5C 671.915,489.07 678.415,505.07 681.5,522.5C 792.501,522.667 903.501,522.5 1014.5,522C 1023.63,507.4 1035.96,503.733 1051.5,511C 1055.83,514 1059.5,517.667 1062.5,522C 1139.83,522.333 1217.17,522.667 1294.5,523C 1313.74,528.599 1322.24,541.432 1320,561.5C 1316.02,576.145 1306.52,584.312 1291.5,586C 1285.51,586.499 1279.51,586.666 1273.5,586.5C 1273.67,594.174 1273.5,601.841 1273,609.5C 1248.24,614.274 1238.9,628.941 1245,653.5C 1251.02,664.93 1260.52,670.93 1273.5,671.5C 1273.5,682.167 1273.5,692.833 1273.5,703.5C 1262.81,703.832 1252.15,703.499 1241.5,702.5C 1236.56,678.697 1222.23,669.53 1198.5,675C 1186.77,680.894 1180.44,690.394 1179.5,703.5C 1168.83,703.5 1158.17,703.5 1147.5,703.5C 1147.5,692.833 1147.5,682.167 1147.5,671.5C 1166.14,669.529 1176.47,659.196 1178.5,640.5C 1176.57,622.072 1166.41,611.739 1148,609.5C 1147.5,601.841 1147.33,594.174 1147.5,586.5C 1118.83,586.167 1090.16,586.5 1061.5,587.5C 1051.78,602.236 1039.12,605.403 1023.5,597C 1020.13,593.965 1017.13,590.632 1014.5,587C 903.501,586.5 792.501,586.333 681.5,586.5C 676.803,613.075 664.469,635.241 644.5,653C 611.922,672.152 583.755,666.985 560,637.5C 539.416,606.273 531.416,571.939 536,534.5C 538.759,508.999 548.093,486.333 564,466.5C 574.092,455.545 586.258,448.211 600.5,444.5 Z M 602.5,484.5 C 593.403,487.311 585.57,492.311 579,499.5C 566.762,520.23 569.596,538.563 587.5,554.5C 581.567,559.035 577.067,564.702 574,571.5C 568.335,588.857 572.168,603.69 585.5,616C 605.157,628.77 623.324,626.937 640,610.5C 653.072,590.092 650.905,571.425 633.5,554.5C 645.541,544.212 650.375,531.212 648,515.5C 641.135,493.154 625.968,482.821 602.5,484.5 Z"/></g>
<g><path style="opacity:0.964" fill="#000000" d="M 773.5,645.5 C 774.833,645.5 776.167,645.5 777.5,645.5C 777.5,744.833 777.5,844.167 777.5,943.5C 785.5,944.833 793.5,946.167 801.5,947.5C 801.5,953.167 801.5,958.833 801.5,964.5C 774.5,964.5 747.5,964.5 720.5,964.5C 720.5,958.833 720.5,953.167 720.5,947.5C 728.833,946.167 737.167,944.833 745.5,943.5C 745.5,855.833 745.5,768.167 745.5,680.5C 737.476,679.195 729.476,677.695 721.5,676C 720.361,670.584 720.194,665.084 721,659.5C 738.61,654.891 756.11,650.224 773.5,645.5 Z"/></g>
<g><path style="opacity:0.963" fill="#000000" d="M 871.5,645.5 C 872.833,645.5 874.167,645.5 875.5,645.5C 875.5,744.833 875.5,844.167 875.5,943.5C 883.816,944.942 892.15,946.275 900.5,947.5C 900.5,953.167 900.5,958.833 900.5,964.5C 873.167,964.5 845.833,964.5 818.5,964.5C 818.5,958.833 818.5,953.167 818.5,947.5C 826.85,946.275 835.184,944.942 843.5,943.5C 843.5,855.833 843.5,768.167 843.5,680.5C 835.448,679.09 827.448,677.423 819.5,675.5C 818.337,670.198 818.171,664.864 819,659.5C 836.61,654.891 854.11,650.224 871.5,645.5 Z"/></g>
<g><path style="opacity:0.957" fill="#000000" d="M 125.5,674.5 C 153.833,674.5 182.167,674.5 210.5,674.5C 210.701,680.509 211.034,686.509 211.5,692.5C 203.813,693.448 196.146,694.614 188.5,696C 187.692,696.308 187.025,696.808 186.5,697.5C 214.295,770.05 241.795,842.717 269,915.5C 284.187,868.931 298.687,822.097 312.5,775C 302.925,748.773 293.258,722.606 283.5,696.5C 275.493,695.11 267.493,693.61 259.5,692C 258.525,686.259 258.192,680.425 258.5,674.5C 288.833,674.5 319.167,674.5 349.5,674.5C 349.5,680.5 349.5,686.5 349.5,692.5C 341.144,693.432 332.811,694.598 324.5,696C 323.572,696.388 322.905,697.055 322.5,698C 347,770.167 371.5,842.333 396,914.5C 414.203,861.892 431.203,808.892 447,755.5C 453.247,735.757 460.08,716.257 467.5,697C 458.607,694.851 449.607,693.351 440.5,692.5C 440.5,686.5 440.5,680.5 440.5,674.5C 465.167,674.5 489.833,674.5 514.5,674.5C 514.5,680.5 514.5,686.5 514.5,692.5C 507.136,692.921 499.97,694.255 493,696.5C 462.136,785.425 431.469,874.425 401,963.5C 393.587,964.481 386.087,964.814 378.5,964.5C 361.222,912.163 343.055,860.163 324,808.5C 307.465,859.772 291.132,911.105 275,962.5C 271.429,963.792 267.595,964.458 263.5,964.5C 259.833,964.167 256.167,963.833 252.5,963.5C 217.706,875.952 183.206,788.285 149,700.5C 148.477,698.777 147.477,697.444 146,696.5C 139.27,694.587 132.437,693.254 125.5,692.5C 125.5,686.5 125.5,680.5 125.5,674.5 Z"/></g>
<g><path style="opacity:0.968" fill="#000000" d="M 922.5,674.5 C 957.502,674.333 992.502,674.5 1027.5,675C 1054.23,674.678 1079.56,680.344 1103.5,692C 1119.01,701.503 1128.18,715.337 1131,733.5C 1137.17,775.676 1121,805.509 1082.5,823C 1076.12,825.07 1069.79,827.236 1063.5,829.5C 1087.17,865.5 1110.83,901.5 1134.5,937.5C 1138.75,939.756 1143.09,941.923 1147.5,944C 1156.54,944.986 1165.54,946.153 1174.5,947.5C 1175.5,953.128 1175.83,958.794 1175.5,964.5C 1153.16,964.667 1130.83,964.5 1108.5,964C 1081.37,920.917 1054.37,877.751 1027.5,834.5C 1014.52,833.501 1001.52,833.168 988.5,833.5C 988.333,869.835 988.5,906.168 989,942.5C 998.13,944.217 1007.3,945.883 1016.5,947.5C 1017.5,953.128 1017.83,958.794 1017.5,964.5C 985.833,964.5 954.167,964.5 922.5,964.5C 922.171,958.794 922.505,953.128 923.5,947.5C 932.833,945.833 942.167,944.167 951.5,942.5C 952.5,860.503 952.833,778.503 952.5,696.5C 942.54,694.887 932.54,693.553 922.5,692.5C 922.5,686.5 922.5,680.5 922.5,674.5 Z M 988.5,698.5 C 988.5,736.5 988.5,774.5 988.5,812.5C 1010.03,813.477 1031.36,811.977 1052.5,808C 1074.26,803.234 1087.76,790.068 1093,768.5C 1100.76,730.299 1085.6,707.799 1047.5,701C 1027.88,699.104 1008.21,698.27 988.5,698.5 Z"/></g>
<g><path style="opacity:0.962" fill="#000000" d="M 1650.5,726.5 C 1653.83,726.5 1657.17,726.5 1660.5,726.5C 1660.5,742.5 1660.5,758.5 1660.5,774.5C 1681.5,774.5 1702.5,774.5 1723.5,774.5C 1723.5,782.167 1723.5,789.833 1723.5,797.5C 1702.5,797.5 1681.5,797.5 1660.5,797.5C 1660.33,836.835 1660.5,876.168 1661,915.5C 1663.22,932.884 1673.05,942.217 1690.5,943.5C 1702.83,942.506 1713.5,937.839 1722.5,929.5C 1726.05,934.092 1729.71,938.592 1733.5,943C 1720.24,954.968 1704.9,963.301 1687.5,968C 1659.29,971.153 1640.79,959.319 1632,932.5C 1630.61,927.239 1629.61,921.906 1629,916.5C 1628.5,876.835 1628.33,837.168 1628.5,797.5C 1620.5,797.5 1612.5,797.5 1604.5,797.5C 1604.5,791.5 1604.5,785.5 1604.5,779.5C 1612.5,777.834 1620.5,776.167 1628.5,774.5C 1628.33,765.494 1628.5,756.494 1629,747.5C 1636.06,740.27 1643.23,733.27 1650.5,726.5 Z"/></g>
<g><path style="opacity:0.958" fill="#000000" d="M 614.5,769.5 C 651.788,766.884 677.955,782.55 693,816.5C 697.095,827.832 698.762,839.499 698,851.5C 695.261,854.118 692.427,856.618 689.5,859C 647.803,861.836 606.137,865.002 564.5,868.5C 565.621,899.607 579.954,922.107 607.5,936C 636.64,945.755 662.474,940.255 685,919.5C 688,922.5 691,925.5 694,928.5C 695.289,930.055 695.956,931.721 696,933.5C 678.774,950.038 658.607,961.538 635.5,968C 594.379,972.186 562.879,957.019 541,922.5C 526.427,890.836 525.761,858.836 539,826.5C 553.952,793.793 579.118,774.793 614.5,769.5 Z M 610.5,793.5 C 584.712,802.656 570.045,820.989 566.5,848.5C 598.833,845.833 631.167,843.167 663.5,840.5C 661.146,807.476 643.479,791.809 610.5,793.5 Z"/></g>
<g><path style="opacity:0.958" fill="#000000" d="M 1268.5,769.5 C 1308.51,767.374 1335.35,785.04 1349,822.5C 1351.86,831.987 1352.86,841.653 1352,851.5C 1349.26,854.118 1346.43,856.618 1343.5,859C 1301.83,862 1260.17,865 1218.5,868C 1219.46,899.281 1233.79,921.948 1261.5,936C 1282.09,943.065 1302.09,941.731 1321.5,932C 1327.67,928.08 1333.67,923.913 1339.5,919.5C 1342.15,922.651 1344.98,925.651 1348,928.5C 1349.29,930.055 1349.96,931.721 1350,933.5C 1332.92,950.292 1312.76,961.792 1289.5,968C 1250.87,972.259 1220.37,958.759 1198,927.5C 1188.18,910.894 1183.35,892.894 1183.5,873.5C 1183.73,832.861 1200.73,801.694 1234.5,780C 1245.38,774.621 1256.71,771.121 1268.5,769.5 Z M 1264.5,793.5 C 1238.71,802.656 1224.05,820.989 1220.5,848.5C 1252.83,845.833 1285.17,843.167 1317.5,840.5C 1315.15,807.483 1297.49,791.816 1264.5,793.5 Z"/></g>
<g><path style="opacity:0.958" fill="#000000" d="M 1431.5,769.5 C 1433.15,777.125 1434.15,785.125 1434.5,793.5C 1455.95,778.941 1479.62,770.941 1505.5,769.5C 1538.03,770.005 1556.53,786.339 1561,818.5C 1561.5,860.165 1561.67,901.832 1561.5,943.5C 1569.5,944.833 1577.5,946.167 1585.5,947.5C 1585.5,953.167 1585.5,958.833 1585.5,964.5C 1558.5,964.5 1531.5,964.5 1504.5,964.5C 1504.5,958.833 1504.5,953.167 1504.5,947.5C 1512.83,946.167 1521.17,944.834 1529.5,943.5C 1529.96,902.137 1529.46,860.803 1528,819.5C 1523.33,802.573 1512.17,794.573 1494.5,795.5C 1473.62,796.515 1454.79,803.181 1438,815.5C 1437.5,858.165 1437.33,900.832 1437.5,943.5C 1445.48,944.962 1453.48,946.295 1461.5,947.5C 1461.5,953.167 1461.5,958.833 1461.5,964.5C 1434.5,964.5 1407.5,964.5 1380.5,964.5C 1380.5,958.833 1380.5,953.167 1380.5,947.5C 1388.5,946.166 1396.5,944.833 1404.5,943.5C 1404.5,897.167 1404.5,850.833 1404.5,804.5C 1396.48,803.295 1388.48,801.962 1380.5,800.5C 1380.17,794.794 1380.5,789.128 1381.5,783.5C 1398.33,778.995 1415,774.328 1431.5,769.5 Z"/></g>
</svg>
